Coordinates
version=1
nRows=29
nColumns=24
inDegrees=yes

Units are S.I. units (second, meters, Newtons, ...)
Angles are in degrees.

endheader
time	pelvis_tilt	pelvis_list	pelvis_rotation	pelvis_tx	pelvis_ty	pelvis_tz	hip_flexion_r	hip_adduction_r	hip_rotation_r	knee_angle_r	ankle_angle_r	subtalar_angle_r	mtp_angle_r	hip_flexion_l	hip_adduction_l	hip_rotation_l	knee_angle_l	ankle_angle_l	subtalar_angle_l	mtp_angle_l	lumbar_extension	lumbar_bending	lumbar_rotation
      3.62000000	    -10.31438234	      6.52132010	     -3.97384631	     -1.03669680	     -0.05710924	      0.46395599	     18.11955978	     -9.05760341	     -1.02087533	    -66.89616556	    -25.63933655	      4.76645745	     23.50969256	     34.24246118	      9.97529938	      2.21471757	    -34.64520585	      3.00388276	     11.73016265	     14.21167722	      9.44030620	     -5.96807561	      7.57359238
      3.62500000	    -10.17018735	      6.46285407	     -3.67924239	     -1.02922293	     -0.05569944	      0.46301026	     18.88922430	     -9.07862161	     -1.35846719	    -67.48962145	    -24.68118994	      4.19859538	     24.11256418	     33.33640597	     10.23220065	      2.60872501	    -34.33337050	      3.47031388	     11.69923660	     13.93290865	      9.25668369	     -5.89055634	      7.07824781
      3.63000000	    -10.06758169	      6.47385598	     -3.48112011	     -1.02174175	     -0.05430886	      0.46230797	     19.75562983	     -9.12303693	     -1.58840187	    -68.04616404	    -23.71811217	      3.68081158	     24.52715192	     32.44955238	     10.46205771	      2.88560779	    -33.93709580	      3.86691382	     11.74778542	     13.90550817	      9.14996809	     -5.88371393	      6.71064430
      3.63500000	     -9.92752283	      6.42811027	     -3.21378668	     -1.01419951	     -0.05281178	      0.46148537	     20.52403709	     -9.13474058	     -1.89492489	    -68.46713138	    -22.74790659	      3.33624345	     25.00381336	     31.48746340	     10.68910717	      3.30386584	    -33.51393975	      4.24113871	     11.74064872	     13.78173527	      8.99694859	     -5.81970387	      6.22425030
      3.64000000	     -9.71161318	      6.29956254	     -2.95739601	     -1.00663739	     -0.05112635	      0.46066262	     21.16483930	     -9.04277296	     -2.18392554	    -68.73542606	    -21.78373692	      3.21155208	     25.62248825	     30.40887066	     10.84659348	      3.81788121	    -33.06644778	      4.58372471	     11.61606142	     13.44941133	      8.75869460	     -5.66159095	      5.67648932
      3.64500000	     -9.52718827	      6.20608659	     -2.72886580	     -0.99903113	     -0.04949174	      0.45993129	     21.84832411	     -8.97744590	     -2.46008881	    -68.93610313	    -20.86830551	      3.08678897	     26.18987452	     29.34375679	     10.99689465	      4.28565025	    -32.57327625	      4.93446204	     11.54595163	     13.17725765	      8.57754633	     -5.54058792	      5.21846817
      3.65000000	     -9.34394516	      6.08774017	     -2.49510429	     -0.99143330	     -0.04784453	      0.45922910	     22.51523856	     -8.87991835	     -2.74725161	    -69.04478728	    -19.97867317	      3.05345134	     26.72164652	     28.26170005	     11.11410277	      4.79151719	    -32.05007455	      5.24664879	     11.44433384	     12.91646525	      8.39757051	     -5.39632901	      4.73337014
      3.65500000	     -9.16929934	      5.95380042	     -2.24585277	     -0.98377232	     -0.04618060	      0.45855572	     23.16148526	     -8.76852101	     -3.06137780	    -69.05417173	    -19.11742805	      3.10449447	     27.20834318	     27.15902445	     11.20873865	      5.34732250	    -31.48317479	      5.51964346	     11.33663353	     12.67438774	      8.24421208	     -5.24316865	      4.22361401
      3.66000000	     -8.95856456	      5.79136194	     -2.01193357	     -0.97618038	     -0.04451820	      0.45786949	     23.75731273	     -8.62132370	     -3.36430614	    -68.97752299	    -18.26214410	      3.25383007	     27.72829046	     26.01281039	     11.27037057	      5.92797353	    -30.90726287	      5.77537695	     11.12100434	     12.35575732	      8.03436369	     -5.04859601	      3.72207222
      3.66500000	     -8.77467554	      5.60889842	     -1.75406088	     -0.96851128	     -0.04285411	      0.45722421	     24.34466096	     -8.45344716	     -3.69764963	    -68.79750760	    -17.45749578	      3.45366964	     28.19063626	     24.86481342	     11.29903058	      6.55557133	    -30.28679259	      5.99721630	     10.93260727	     12.05189538	      7.87465813	     -4.84369159	      3.21276686
      3.67000000	     -8.57502236	      5.41041446	     -1.49562122	     -0.96088065	     -0.04121669	      0.45658212	     24.89891833	     -8.27203402	     -4.04004723	    -68.53821802	    -16.67260615	      3.72391542	     28.64000523	     23.69226941	     11.30319016	      7.21325105	    -29.65001613	      6.19894504	     10.68182960	     11.70747526	      7.69542175	     -4.62146460	      2.68573241
      3.67500000	     -8.37657804	      5.20181876	     -1.23392209	     -0.95326076	     -0.03961744	      0.45596075	     25.43495056	     -8.07919876	     -4.38742756	    -68.19834541	    -15.91841894	      4.03293330	     29.05684711	     22.51059400	     11.28190159	      7.88867960	    -28.99194808	      6.38023606	     10.40504704	     11.33662600	      7.51580177	     -4.39074496	      2.14705796
      3.68000000	     -8.17379341	      4.99075002	     -0.96301268	     -0.94565678	     -0.03806316	      0.45534981	     25.94596484	     -7.88615952	     -4.73962964	    -67.78231303	    -15.18922263	      4.37731276	     29.44169303	     21.31598100	     11.24511118	      8.57892025	    -28.31438408	      6.54492607	     10.09933553	     10.93006904	      7.32751438	     -4.15864176	      1.58270311
      3.68500000	     -7.96281160	      4.78463131	     -0.69493307	     -0.93809394	     -0.03657774	      0.45476666	     26.43710313	     -7.70123872	     -5.09484711	    -67.30207204	    -14.47837646	      4.73671279	     29.78696544	     20.10909251	     11.19658329	      9.28223266	    -27.62344803	      6.70764549	      9.76751765	     10.48889653	      7.12896917	     -3.93716700	      1.00574947
      3.69000000	     -7.77703064	      4.55112538	     -0.40110492	     -0.93052797	     -0.03514014	      0.45418658	     26.92344026	     -7.49404712	     -5.47384049	    -66.73607905	    -13.81892170	      5.11450954	     30.06161519	     18.92457112	     11.10199623	      9.99707293	    -26.91850131	      6.85384977	      9.46235700	     10.06387435	      6.96208277	     -3.69108480	      0.42017877
      3.69500000	     -7.59452507	      4.31599378	     -0.09990177	     -0.92299215	     -0.03376669	      0.45362644	     27.39492625	     -7.28978206	     -5.85822748	    -66.10083912	    -13.18867341	      5.49758278	     30.27882406	     17.74366456	     10.98506341	     10.71021624	    -26.20214619	      6.98748164	      9.15883243	      9.63566316	      6.79780213	     -3.44728638	     -0.17508508
      3.70000000	     -7.41348561	      4.08446244	      0.20924230	     -0.91548426	     -0.03246186	      0.45308120	     27.84931700	     -7.09411446	     -6.24359195	    -65.39950158	    -12.58480071	      5.87555703	     30.43710546	     16.56612462	     10.85053765	     11.41236539	    -25.47485592	      7.11344888	      8.86687957	      9.20665715	      6.63309231	     -3.21101778	     -0.77810185
      3.70500000	     -7.23792760	      3.85528271	      0.52471706	     -0.90800938	     -0.03123153	      0.45255465	     28.29102738	     -6.90479953	     -6.62763436	    -64.63259126	    -12.00954290	      6.23945850	     30.53258501	     15.39959248	     10.69432828	     12.09258123	    -24.74011701	      7.23777181	      8.60028784	      8.79075310	      6.47167342	     -2.98054130	     -1.38686693
      3.71000000	     -7.06452790	      3.63101600	      0.84713570	     -0.90056310	     -0.03006764	      0.45204862	     28.71544628	     -6.72527966	     -7.00952463	    -63.80054237	    -11.46046676	      6.58717026	     30.56319352	     14.24207749	     10.51841444	     12.74514166	    -24.00044308	      7.35497187	      8.36951667	      8.38997493	      6.31024976	     -2.75915424	     -2.00156239
      3.71500000	     -6.90565115	      3.40990719	      1.17623414	     -0.89315789	     -0.02899273	      0.45156536	     29.13750923	     -6.55346936	     -7.38859346	    -62.90586723	    -10.94424608	      6.90590701	     30.53826320	     13.11322330	     10.31922743	     13.35290028	    -23.26105235	      7.48076533	      8.19621079	      8.04185017	      6.16048534	     -2.54631841	     -2.62559101
      3.72000000	     -6.74494324	      3.19948324	      1.50899805	     -0.88578531	     -0.02798630	      0.45110169	     29.53765323	     -6.39700221	     -7.75831828	    -61.94864751	    -10.44759760	      7.20047106	     30.45288044	     11.99263680	     10.10621160	     13.92183910	    -22.52004544	      7.60268220	      8.06833076	      7.72290140	      6.00518104	     -2.34887472	     -3.24968903
      3.72500000	     -6.59044434	      2.99924111	      1.84478876	     -0.87844832	     -0.02705692	      0.45066051	     29.92459169	     -6.25502436	     -8.11878371	    -60.92936016	     -9.97097664	      7.46561229	     30.31392547	     10.89216859	      9.87857381	     14.44260078	    -21.78172976	      7.72848275	      8.00312370	      7.45206562	      5.85218026	     -2.16475184	     -3.87394839
      3.73000000	     -6.43330134	      2.81120200	      2.17632100	     -0.87114441	     -0.02619968	      0.45024166	     30.28929924	     -6.12676443	     -8.46272997	    -59.85097559	     -9.51012325	      7.70934174	     30.10960083	      9.80289535	      9.63987821	     14.91197613	    -21.04772229	      7.85613408	      7.98873891	      7.21674651	      5.69176456	     -1.99405963	     -4.49393414
      3.73500000	     -6.28145573	      2.63902552	      2.50834988	     -0.86387662	     -0.02542393	      0.44987178	     30.63940867	     -6.01506897	     -8.79033960	    -58.71472394	     -9.05896030	      7.92567294	     29.85382570	      8.73728943	      9.39341427	     15.32601282	    -20.32546017	      7.98981771	      8.04025008	      7.03073106	      5.53193998	     -1.84846238	     -5.10905489
      3.74000000	     -6.13357487	      2.47532709	      2.83961384	     -0.85663797	     -0.02472471	      0.44951372	     30.97039827	     -5.91682811	     -9.10813358	    -57.51657080	     -8.61746056	      8.12729836	     29.55617938	      7.69283517	      9.13613310	     15.69263427	    -19.61584333	      8.13095773	      8.15558399	      6.89365922	      5.37058133	     -1.70990202	     -5.71983186
      3.74500000	     -5.97799142	      2.32537374	      3.16296666	     -0.84943119	     -0.02409168	      0.44919512	     31.27132853	     -5.83036523	     -9.40616038	    -56.26099732	     -8.17665121	      8.32129259	     29.20335217	      6.65534247	      8.87296138	     16.01142530	    -18.91662399	      8.27369742	      8.32108924	      6.79684096	      5.19412976	     -1.58692212	     -6.32550666
      3.75000000	     -5.82515957	      2.19123095	      3.47339481	     -0.84224171	     -0.02354154	      0.44891984	     31.55328008	     -5.75342455	     -9.67273683	    -54.94928414	     -7.73734534	      8.51317985	     28.80679278	      5.63637226	      8.60856811	     16.27815608	    -18.23115593	      8.41845436	      8.52898953	      6.74522651	      5.01639442	     -1.48316307	     -6.92187354
      3.75500000	     -5.67717229	      2.06140454	      3.78768048	     -0.83508866	     -0.02304610	      0.44869171	     31.80672321	     -5.67792892	     -9.92275944	    -53.56356056	     -7.28237838	      8.70927531	     28.38556179	      4.64840597	      8.33323603	     16.50954947	    -17.57693307	      8.53194213	      8.79343058	      6.72976174	      4.83380816	     -1.39246944	     -7.49437660
      3.76000000	     -5.52924063	      1.93854591	      4.08628060	     -0.82792099	     -0.02265464	      0.44846792	     32.03716086	     -5.61247129	    -10.16340144	    -52.12766299	     -6.82267454	      8.92613631	     27.94473319	      3.66946876	      8.05528198	     16.70033093	    -16.93234092	      8.67992789	      9.07049708	      6.76377372	      4.65728139	     -1.29944168	     -8.05902723
